PathFileType	4	(X/Y/Z)																																																																																																																																																																																															
DataRate	CameraRate	NumFrames	NumMarkers	Units	OrigDataRate	OrigDataStartFrame	OrigNumFrames																																																																																																																																																																																										
100	100	4	64	     mm	100	149	397																																																																																																																																																																																										
Frame#	Time	LASI			RASI			LPSI			RPSI			RTH2			RTH3			RLFC			RMFC			LTH1			LTH2			LTH3			LLFC			LMFC			RTB1			RTB2			RTB3			RLMAL			RMMAL			LTB1			LTB2			LTB3			LLMAL			LMMAL			RCAL			RTOE			RMT5			LCAL			LTOE			LMT5			LACR			RACR			CLAV			C7			LASH			LPSH			RASH			RPSH			RUA1			RUA2			RUA3			RLEL			RMEL			LUA1			LUA2			LUA3			LLEL			LMEL			RFAsuperior			RFAradius			RFAulna			LFAsuperior			LFAradius			LFAulna			RTH1			RHJC			LHJC			RKJC			LKJC			RAJC			LAJC			RSJC			LSJC			REJC			LEJC		
		X1	Y1	Z1	X2	Y2	Z2	X3	Y3	Z3	X4	Y4	Z4	X5	Y5	Z5	X6	Y6	Z6	X7	Y7	Z7	X8	Y8	Z8	X9	Y9	Z9	X10	Y10	Z10	X11	Y11	Z11	X12	Y12	Z12	X13	Y13	Z13	X14	Y14	Z14	X15	Y15	Z15	X16	Y16	Z16	X17	Y17	Z17	X18	Y18	Z18	X19	Y19	Z19	X20	Y20	Z20	X21	Y21	Z21	X22	Y22	Z22	X23	Y23	Z23	X24	Y24	Z24	X25	Y25	Z25	X26	Y26	Z26	X27	Y27	Z27	X28	Y28	Z28	X29	Y29	Z29	X30	Y30	Z30	X31	Y31	Z31	X32	Y32	Z32	X33	Y33	Z33	X34	Y34	Z34	X35	Y35	Z35	X36	Y36	Z36	X37	Y37	Z37	X38	Y38	Z38	X39	Y39	Z39	X40	Y40	Z40	X41	Y41	Z41	X42	Y42	Z42	X43	Y43	Z43	X44	Y44	Z44	X45	Y45	Z45	X46	Y46	Z46	X47	Y47	Z47	X48	Y48	Z48	X49	Y49	Z49	X50	Y50	Z50	X51	Y51	Z51	X52	Y52	Z52	X53	Y53	Z53	X54	Y54	Z54	X55	Y55	Z55	X56	Y56	Z56	X57	Y57	Z57	X58	Y58	Z58	X59	Y59	Z59	X60	Y60	Z60	X61	Y61	Z61	X62	Y62	Z62	X63	Y63	Z63	X64	Y64	Z64
																																																																																																																																																																																																	
149	1.48	629.27978	1082.59021	-360.87692	374.93372	1075.2522	-361.59058	560.28925	1126.5741	-524.00653	446.90012	1119.49451	-525.21649	340.55179	820.5058	-504.21195	334.15546	667.0578	-477.65558	335.78348	561.8056	-472.94369	450.6131	536.78876	-459.65222	690.69733	955.92584	-421.17007	658.4845	806.03699	-506.17322	674.9021	670.23175	-467.51489	671.91821	551.53217	-456.02145	563.17761	520.21381	-471.49179	374.27963	406.43454	-437.56097	318.74219	370.3508	-527.02026	379.39801	220.56216	-471.77631	331.85361	119.43602	-528.99719	421.18634	130.11209	-504.45725	640.30365	440.83423	-425.3649	689.75592	342.09821	-516.06873	648.40686	227.95615	-455.52673	680.26154	124.64819	-507.86169	593.35858	130.91255	-490.9704	388.9873	97.31425	-596.84906	373.61642	76.07557	-352.31284	287.48981	52.69372	-412.86157	618.88855	97.58528	-579.87213	645.36346	79.1776	-343.64883	735.1842	43.67096	-403.84601	632.82098	1578.18445	-491.80676	341.10202	1565.54712	-469.99881	458.83756	1529.75671	-408.75015	496.09598	1580.45325	-533.90588	645.78351	1545.57813	-428.57761	661.77142	1515.13769	-548.84857	329.58588	1527.52978	-416.57639	321.42883	1496.83093	-552.80408	244.3515	1468.48816	-531.32849	184.39545	1477.4585	-478.63605	100.41573	1420.55786	-503.78046	40.69059	1382.61267	-512.58124	79.07107	1322.99194	-464.42871	732.867	1491.02466	-534.37158	808.71435	1499.08411	-487.8454	886.6723	1454.92627	-512.76758	958.13025	1436.5	-503.21222	924.47156	1355.16052	-482.396	-27.09354	1392.65991	-426.57693	-57.02708	1365.81641	-250.46249	-116.40229	1361.60425	-287.66428	1013.58698	1422.35962	-434.90604	1019.19562	1371.11426	-249.77193	1087.7406	1384.27942	-266.68796	306.49187	957.02256	-415.36461	412.45029	977.15642	-437.09279	587.65686	1001.04758	-444.85914	393.19829	549.29718	-466.29796	617.54791	535.87299	-463.75662	376.51997	124.77406	-516.72722	636.81006	127.78037	-499.41605	325.50735	1512.18036	-484.69023	653.77747	1530.35791	-488.71309	59.88083	1352.80231	-488.50497	941.3009	1395.83026	-492.80411
150	1.49	629.29279	1082.5968	-360.91397	374.944	1075.24658	-361.52127	560.28961	1126.5741	-524.00708	446.88324	1119.46606	-525.18243	340.2785	820.60864	-503.99017	334.15649	667.05768	-477.65601	335.79599	561.79858	-472.90832	450.62402	536.80896	-459.63507	690.68744	955.9267	-421.1362	658.55347	806.02924	-506.17532	674.90338	670.23676	-467.47864	671.9389	551.53278	-456.03967	563.11578	520.11237	-471.77295	374.1077	406.41501	-437.80701	318.73807	370.34439	-527.02234	379.39038	220.53989	-471.77597	331.85043	119.43332	-529.00897	421.18695	130.10683	-504.42712	640.31158	440.86014	-425.36548	689.74835	342.09149	-516.04517	648.38324	227.98099	-455.51099	680.25922	124.64661	-507.81699	593.36694	130.93187	-490.93008	388.98816	97.31419	-596.84979	373.62311	76.08096	-352.34601	287.4892	52.62391	-412.90021	618.89508	97.58279	-579.92627	645.36444	79.16063	-343.64291	735.1842	43.67097	-403.84601	632.86206	1578.14185	-491.8761	341.09097	1565.60425	-470.00928	458.8526	1529.7229	-408.77484	496.1369	1580.4397	-533.92047	645.82367	1545.52075	-428.58832	661.75861	1515.09924	-548.84668	329.5632	1527.52331	-416.61121	321.4277	1496.77295	-552.79053	244.33725	1468.46423	-531.31287	184.40729	1477.46057	-478.63364	100.42581	1420.53564	-503.78482	40.7179	1382.57617	-512.65472	79.07026	1322.96716	-464.45245	732.87128	1490.95825	-534.44849	808.72473	1499.01465	-487.94135	886.64294	1454.81543	-512.83185	958.12378	1436.41455	-503.26611	924.45813	1355.07581	-482.43347	-27.09426	1392.60059	-426.58997	-56.73833	1365.77271	-250.72653	-116.33971	1361.56567	-287.73651	1013.60492	1422.25037	-434.96033	1019.1695	1370.99524	-249.80832	1087.78272	1384.18372	-266.75201	306.49366	957.02451	-415.31146	412.44943	977.15338	-437.05505	587.655	1001.03862	-444.84609	393.21001	549.30377	-466.2717	617.52734	535.82257	-463.90631	376.51869	124.77007	-516.71805	636.81308	127.78924	-499.37354	325.49545	1512.14813	-484.70087	653.79114	1530.31	-488.7175	59.89408	1352.77167	-488.55359	941.29095	1395.74518	-492.84979
151	1.5	629.27405	1082.61084	-360.90454	374.9667	1075.26685	-361.51953	560.43561	1126.4137	-524.3338	446.93985	1119.48682	-525.25384	340.20664	820.6189	-503.92246	334.15152	667.05359	-477.66104	335.78339	561.80487	-472.94232	450.62619	536.79828	-459.60883	690.69232	955.91803	-421.08884	658.6037	806.03406	-506.1608	674.92932	670.23572	-467.42993	671.92957	551.52734	-456.03024	563.18933	520.23566	-471.44766	374.33615	406.44077	-437.45929	318.75055	370.27609	-526.9845	379.39828	220.56297	-471.77524	331.88129	119.42136	-528.99323	421.20013	130.11423	-504.48084	640.32031	440.86755	-425.29669	689.75299	342.09976	-516.07141	648.40674	227.9566	-455.52621	680.26355	124.65431	-507.83929	593.36243	130.93239	-490.9295	389.19507	97.34193	-597.06256	373.54932	75.80135	-352.13199	287.51148	52.65622	-412.86279	618.90155	97.58762	-579.92236	645.23132	79.29889	-343.62329	735.19434	43.66774	-403.8555	632.88196	1578.11023	-491.85617	341.13153	1565.57581	-470.04324	458.84967	1529.72791	-408.74731	496.13718	1580.43884	-533.91223	645.82446	1545.49878	-428.60818	661.7898	1515.06982	-548.90594	329.57635	1527.4845	-416.62943	321.47559	1496.77161	-552.83563	244.38235	1468.45874	-531.35352	184.48483	1477.35754	-478.68765	100.4361	1420.50342	-503.79953	40.78068	1382.51733	-512.70136	79.08657	1322.95142	-464.43652	732.89014	1490.90759	-534.47809	808.75775	1498.94544	-487.98608	886.64453	1454.73193	-512.86841	958.12775	1436.3125	-503.33942	924.43585	1354.97937	-482.47952	-27.11234	1392.63879	-426.60586	-56.76065	1365.72266	-250.76672	-116.31994	1361.56445	-287.75708	1013.59857	1422.16333	-435.0163	1019.21332	1370.85291	-249.93776	1087.80298	1384.04565	-266.82617	306.50859	957.04463	-415.37212	412.47881	977.13919	-437.07315	587.69113	1000.99055	-444.78623	393.20479	549.30157	-466.27557	617.55945	535.8815	-463.73895	376.54071	124.7678	-516.73703	636.81299	127.79335	-499.3844	325.52597	1512.12805	-484.73253	653.80713	1530.2843	-488.75707	59.93362	1352.73438	-488.56894	941.2818	1395.64594	-492.90947
152	1.51	629.25507	1082.60352	-360.96219	374.94238	1075.26953	-361.50983	560.33948	1126.57507	-523.9931	446.92447	1119.45886	-525.22259	340.20596	820.63562	-503.87705	334.15549	667.0708	-477.64038	335.8049	561.83527	-472.90289	450.63473	536.80359	-459.59409	690.70343	955.91248	-421.09796	658.61871	806.03082	-506.13846	674.95904	670.23987	-467.46805	671.93909	551.52801	-456.01151	562.67755	520.5249	-471.08041	374.31009	406.46454	-437.46402	318.81378	370.30853	-527.03363	379.36233	220.54689	-471.76141	331.86731	119.4035	-528.98193	421.18701	130.10683	-504.4274	640.31244	440.84149	-425.29571	689.75031	342.0704	-516.03394	648.40613	227.95177	-455.50043	680.26178	124.64336	-507.82382	593.38599	130.92389	-490.93637	389.19852	97.34184	-597.06555	373.63592	76.0564	-352.32446	287.54004	52.71321	-412.85123	618.90131	97.58763	-579.92188	645.36096	79.15369	-343.64194	735.19257	43.64542	-403.84094	632.87793	1578.07031	-491.90579	341.15573	1565.55261	-470.0611	458.87915	1529.68518	-408.80423	496.16113	1580.4231	-533.90875	645.8363	1545.4762	-428.65439	661.80853	1515.00195	-548.96435	329.5795	1527.49548	-416.61731	321.51321	1496.74731	-552.87421	244.42734	1468.46692	-531.4032	184.49121	1477.35852	-478.69315	100.47697	1420.47253	-503.85684	40.81965	1382.48279	-512.73138	79.10613	1322.90039	-464.50986	732.92078	1490.87842	-534.53931	808.75305	1498.88477	-488.00577	886.63708	1454.64819	-512.90808	958.11639	1436.19678	-503.41641	924.40424	1354.90088	-482.50873	-27.06906	1392.61401	-426.65216	-57.01363	1365.75317	-250.5849	-116.31566	1361.5105	-287.79761	1013.60492	1422.03394	-435.11807	1019.19812	1370.75147	-249.97551	1087.81799	1383.8739	-266.97977	306.46799	957.07651	-415.3821	412.43461	977.18052	-437.09137	587.64647	1001.02731	-444.82481	393.21982	549.31943	-466.24849	617.30832	536.02646	-463.54596	376.52716	124.75516	-516.70467	636.82388	127.78363	-499.3801	325.54636	1512.1214	-484.74576	653.82242	1530.23907	-488.80937	59.96289	1352.69159	-488.62062	941.26031	1395.54883	-492.96257
